<mxfile host="app.diagrams.net" agent="Mozilla/5.0 (Windows NT 10.0; Win64; x64) AppleWebKit/537.36 (KHTML, like Gecko) Chrome/130.0.0.0 Safari/537.36 OPR/115.0.0.0" version="25.0.3">
  <diagram name="Сторінка-1" id="UvdMJV9_GIe6cro4G2kr">
    <mxGraphModel dx="2046" dy="1054" grid="1" gridSize="10" guides="1" tooltips="1" connect="1" arrows="1" fold="1" page="1" pageScale="1" pageWidth="827" pageHeight="1169" math="0" shadow="0">
      <root>
        <mxCell id="0" />
        <mxCell id="1" parent="0" />
        <mxCell id="F0rOSps_3qiA4jYZ8Of5-2" value="" style="rounded=0;whiteSpace=wrap;html=1;rotation=90;" parent="1" vertex="1">
          <mxGeometry x="70.5" y="413" width="942.87" height="567" as="geometry" />
        </mxCell>
        <mxCell id="F0rOSps_3qiA4jYZ8Of5-3" value="&lt;font size=&quot;1&quot; style=&quot;&quot;&gt;&lt;b style=&quot;font-size: 16px;&quot;&gt;FTP-server&lt;/b&gt;&lt;/font&gt;" style="text;html=1;align=center;verticalAlign=middle;whiteSpace=wrap;rounded=0;" parent="1" vertex="1">
          <mxGeometry x="446.51" y="220" width="161.5" height="40" as="geometry" />
        </mxCell>
        <mxCell id="F0rOSps_3qiA4jYZ8Of5-4" value="&lt;font style=&quot;font-size: 16px;&quot;&gt;&lt;b&gt;Адміністратор&lt;/b&gt;&lt;/font&gt;&lt;div style=&quot;font-size: 16px;&quot;&gt;&lt;span style=&quot;&quot;&gt;&lt;br&gt;&lt;/span&gt;&lt;/div&gt;" style="shape=umlActor;verticalLabelPosition=bottom;verticalAlign=top;html=1;outlineConnect=0;fillColor=#f0f0f0;" parent="1" vertex="1">
          <mxGeometry x="70.5" y="508" width="60.75" height="122" as="geometry" />
        </mxCell>
        <mxCell id="F0rOSps_3qiA4jYZ8Of5-5" value="&lt;div style=&quot;font-size: 16px;&quot;&gt;&lt;span style=&quot;&quot;&gt;&lt;b&gt;Користувач&lt;/b&gt;&lt;/span&gt;&lt;/div&gt;&lt;div style=&quot;font-size: 16px;&quot;&gt;&lt;span style=&quot;&quot;&gt;&lt;br&gt;&lt;/span&gt;&lt;/div&gt;" style="shape=umlActor;verticalLabelPosition=bottom;verticalAlign=top;html=1;outlineConnect=0;fillColor=#f0f0f0;" parent="1" vertex="1">
          <mxGeometry x="70.5" y="848" width="60.75" height="122" as="geometry" />
        </mxCell>
        <mxCell id="F0rOSps_3qiA4jYZ8Of5-6" value="&lt;font style=&quot;font-size: 16px;&quot;&gt;&lt;b&gt;Авторизація&lt;/b&gt;&lt;/font&gt;" style="ellipse;whiteSpace=wrap;html=1;fillColor=#f0f0f0;" parent="1" vertex="1">
          <mxGeometry x="280" y="1070" width="180" height="80" as="geometry" />
        </mxCell>
        <mxCell id="F0rOSps_3qiA4jYZ8Of5-7" value="&lt;font style=&quot;font-size: 16px;&quot;&gt;&lt;b&gt;Створення користувачів&lt;/b&gt;&lt;/font&gt;" style="ellipse;whiteSpace=wrap;html=1;fillColor=#f0f0f0;" parent="1" vertex="1">
          <mxGeometry x="285" y="260" width="180" height="80" as="geometry" />
        </mxCell>
        <mxCell id="F0rOSps_3qiA4jYZ8Of5-8" value="&lt;div style=&quot;&quot;&gt;&lt;span style=&quot;font-size: 16px;&quot;&gt;&lt;b&gt;Ведення статистики з&#39;єднань&lt;/b&gt;&lt;/span&gt;&lt;/div&gt;" style="ellipse;whiteSpace=wrap;html=1;align=center;fillColor=#f0f0f0;" parent="1" vertex="1">
          <mxGeometry x="270" y="350" width="210" height="80" as="geometry" />
        </mxCell>
        <mxCell id="F0rOSps_3qiA4jYZ8Of5-9" value="&lt;font style=&quot;font-size: 16px;&quot;&gt;&lt;b&gt;Обмеження кількості підключень&amp;nbsp;&lt;/b&gt;&lt;/font&gt;" style="ellipse;whiteSpace=wrap;html=1;fillColor=#f0f0f0;" parent="1" vertex="1">
          <mxGeometry x="267.5" y="440" width="210" height="80" as="geometry" />
        </mxCell>
        <mxCell id="F0rOSps_3qiA4jYZ8Of5-10" value="&lt;font style=&quot;font-size: 16px;&quot;&gt;&lt;b&gt;Обмеження швидкості передачі даних глобально та для певного користувача&lt;/b&gt;&lt;/font&gt;" style="ellipse;whiteSpace=wrap;html=1;fillColor=#f0f0f0;" parent="1" vertex="1">
          <mxGeometry x="262.5" y="529" width="247.5" height="121" as="geometry" />
        </mxCell>
        <mxCell id="F0rOSps_3qiA4jYZ8Of5-13" value="&lt;font style=&quot;font-size: 16px;&quot;&gt;&lt;b&gt;Завантаження файлів&lt;/b&gt;&lt;/font&gt;" style="ellipse;whiteSpace=wrap;html=1;fillColor=#f0f0f0;" parent="1" vertex="1">
          <mxGeometry x="620" y="800" width="180" height="80" as="geometry" />
        </mxCell>
        <mxCell id="F0rOSps_3qiA4jYZ8Of5-14" value="&lt;font style=&quot;font-size: 16px;&quot;&gt;&lt;b&gt;Вивантаження файлів&lt;/b&gt;&lt;/font&gt;" style="ellipse;whiteSpace=wrap;html=1;fillColor=#f0f0f0;" parent="1" vertex="1">
          <mxGeometry x="620" y="890" width="180" height="80" as="geometry" />
        </mxCell>
        <mxCell id="F0rOSps_3qiA4jYZ8Of5-15" value="&lt;font style=&quot;font-size: 16px;&quot;&gt;&lt;b&gt;Видалення файлів&lt;/b&gt;&lt;/font&gt;" style="ellipse;whiteSpace=wrap;html=1;fillColor=#f0f0f0;" parent="1" vertex="1">
          <mxGeometry x="620" y="980" width="180" height="80" as="geometry" />
        </mxCell>
        <mxCell id="F0rOSps_3qiA4jYZ8Of5-18" value="&lt;span style=&quot;font-size: 16px;&quot;&gt;&lt;b&gt;Робота із файлами&lt;/b&gt;&lt;/span&gt;" style="ellipse;whiteSpace=wrap;html=1;fillColor=#f0f0f0;" parent="1" vertex="1">
          <mxGeometry x="285" y="860" width="180" height="80" as="geometry" />
        </mxCell>
        <mxCell id="F0rOSps_3qiA4jYZ8Of5-19" value="&lt;font style=&quot;font-size: 16px;&quot;&gt;&lt;b&gt;Помилка авторизації&lt;/b&gt;&lt;/font&gt;" style="ellipse;whiteSpace=wrap;html=1;fillColor=#f0f0f0;" parent="1" vertex="1">
          <mxGeometry x="620" y="1070" width="180" height="80" as="geometry" />
        </mxCell>
        <mxCell id="F0rOSps_3qiA4jYZ8Of5-20" value="" style="endArrow=classic;html=1;rounded=0;exitX=0;exitY=0.5;exitDx=0;exitDy=0;entryX=1;entryY=0.5;entryDx=0;entryDy=0;strokeColor=default;dashed=1;dashPattern=8 8;" parent="1" source="F0rOSps_3qiA4jYZ8Of5-19" target="F0rOSps_3qiA4jYZ8Of5-6" edge="1">
          <mxGeometry width="50" height="50" relative="1" as="geometry">
            <mxPoint x="550.5784162040338" y="271.245" as="sourcePoint" />
            <mxPoint x="540" y="350" as="targetPoint" />
          </mxGeometry>
        </mxCell>
        <mxCell id="F0rOSps_3qiA4jYZ8Of5-23" value="&lt;font style=&quot;font-size: 14px;&quot;&gt;&amp;lt;&amp;lt;extend&amp;gt;&amp;gt;&lt;/font&gt;" style="text;html=1;align=center;verticalAlign=middle;whiteSpace=wrap;rounded=0;" parent="1" vertex="1">
          <mxGeometry x="511.93" y="1081.34" width="60" height="30" as="geometry" />
        </mxCell>
        <mxCell id="F0rOSps_3qiA4jYZ8Of5-24" value="&lt;font style=&quot;font-size: 14px;&quot;&gt;&amp;lt;&amp;lt;include&lt;/font&gt;&lt;span style=&quot;background-color: initial; font-size: 14px;&quot;&gt;&amp;gt;&amp;gt;&lt;/span&gt;" style="text;html=1;align=center;verticalAlign=middle;whiteSpace=wrap;rounded=0;rotation=-82;" parent="1" vertex="1">
          <mxGeometry x="340" y="790" width="60" height="30" as="geometry" />
        </mxCell>
        <mxCell id="F0rOSps_3qiA4jYZ8Of5-27" value="" style="endArrow=classic;html=1;rounded=0;entryX=0;entryY=0.5;entryDx=0;entryDy=0;" parent="1" target="F0rOSps_3qiA4jYZ8Of5-7" edge="1">
          <mxGeometry width="50" height="50" relative="1" as="geometry">
            <mxPoint x="130" y="520" as="sourcePoint" />
            <mxPoint x="120" y="640" as="targetPoint" />
          </mxGeometry>
        </mxCell>
        <mxCell id="F0rOSps_3qiA4jYZ8Of5-28" value="" style="endArrow=classic;html=1;rounded=0;entryX=0;entryY=0.5;entryDx=0;entryDy=0;targetPerimeterSpacing=0;sourcePerimeterSpacing=0;" parent="1" source="F0rOSps_3qiA4jYZ8Of5-4" target="F0rOSps_3qiA4jYZ8Of5-8" edge="1">
          <mxGeometry width="50" height="50" relative="1" as="geometry">
            <mxPoint x="140" y="481" as="sourcePoint" />
            <mxPoint x="170" y="640" as="targetPoint" />
          </mxGeometry>
        </mxCell>
        <mxCell id="F0rOSps_3qiA4jYZ8Of5-29" value="" style="endArrow=classic;html=1;rounded=0;entryX=0;entryY=0.5;entryDx=0;entryDy=0;" parent="1" source="F0rOSps_3qiA4jYZ8Of5-4" target="F0rOSps_3qiA4jYZ8Of5-9" edge="1">
          <mxGeometry width="50" height="50" relative="1" as="geometry">
            <mxPoint x="80" y="710" as="sourcePoint" />
            <mxPoint x="130" y="660" as="targetPoint" />
          </mxGeometry>
        </mxCell>
        <mxCell id="F0rOSps_3qiA4jYZ8Of5-30" value="" style="endArrow=classic;html=1;rounded=0;entryX=0;entryY=0.5;entryDx=0;entryDy=0;" parent="1" source="F0rOSps_3qiA4jYZ8Of5-4" target="F0rOSps_3qiA4jYZ8Of5-10" edge="1">
          <mxGeometry width="50" height="50" relative="1" as="geometry">
            <mxPoint x="60" y="710" as="sourcePoint" />
            <mxPoint x="110" y="660" as="targetPoint" />
          </mxGeometry>
        </mxCell>
        <mxCell id="F0rOSps_3qiA4jYZ8Of5-31" value="" style="endArrow=classic;html=1;rounded=0;entryX=0;entryY=0.5;entryDx=0;entryDy=0;" parent="1" source="F0rOSps_3qiA4jYZ8Of5-4" target="F0rOSps_3qiA4jYZ8Of5-11" edge="1">
          <mxGeometry width="50" height="50" relative="1" as="geometry">
            <mxPoint x="160" y="650" as="sourcePoint" />
            <mxPoint x="140" y="710" as="targetPoint" />
          </mxGeometry>
        </mxCell>
        <mxCell id="F0rOSps_3qiA4jYZ8Of5-32" value="" style="endArrow=block;html=1;rounded=0;strokeColor=default;endFill=0;strokeWidth=1;endSize=8;" parent="1" edge="1">
          <mxGeometry width="50" height="50" relative="1" as="geometry">
            <mxPoint x="100.44" y="660" as="sourcePoint" />
            <mxPoint x="100.44" y="840" as="targetPoint" />
          </mxGeometry>
        </mxCell>
        <mxCell id="nnPJU36ubpt1Rap7rljA-2" value="" style="endArrow=classic;html=1;rounded=0;entryX=0;entryY=0.5;entryDx=0;entryDy=0;" parent="1" target="F0rOSps_3qiA4jYZ8Of5-6" edge="1">
          <mxGeometry width="50" height="50" relative="1" as="geometry">
            <mxPoint x="150" y="950" as="sourcePoint" />
            <mxPoint x="200" y="780" as="targetPoint" />
          </mxGeometry>
        </mxCell>
        <mxCell id="fOVUKI8mmc9ir-H8isCw-5" value="" style="rounded=0;whiteSpace=wrap;html=1;" parent="1" vertex="1">
          <mxGeometry x="456.93" y="1040" width="170" height="41.34" as="geometry" />
        </mxCell>
        <mxCell id="F0rOSps_3qiA4jYZ8Of5-11" value="&lt;span style=&quot;font-size: 16px;&quot;&gt;&lt;b&gt;Розподіл прав доступу до файлів&lt;/b&gt;&lt;/span&gt;" style="ellipse;whiteSpace=wrap;html=1;fillColor=#f0f0f0;" parent="1" vertex="1">
          <mxGeometry x="270" y="660" width="240" height="90" as="geometry" />
        </mxCell>
        <mxCell id="fOVUKI8mmc9ir-H8isCw-8" value="&lt;div style=&quot;&quot;&gt;&lt;span style=&quot;background-color: initial;&quot;&gt;&lt;font style=&quot;font-size: 12px;&quot;&gt;Умова: {невірні облікові дані}&lt;/font&gt;&lt;/span&gt;&lt;/div&gt;&lt;div style=&quot;&quot;&gt;&lt;span style=&quot;background-color: initial;&quot;&gt;&lt;font style=&quot;font-size: 12px;&quot;&gt;Точка розширення: помилка&lt;/font&gt;&lt;/span&gt;&lt;/div&gt;" style="text;html=1;align=center;verticalAlign=middle;whiteSpace=wrap;rounded=0;" parent="1" vertex="1">
          <mxGeometry x="456.93" y="1040" width="170" height="41.34" as="geometry" />
        </mxCell>
        <mxCell id="-aJ28CqCpWHa6ndmjElJ-1" value="" style="endArrow=none;html=1;rounded=0;entryX=0.5;entryY=0;entryDx=0;entryDy=0;" parent="1" target="F0rOSps_3qiA4jYZ8Of5-23" edge="1">
          <mxGeometry width="50" height="50" relative="1" as="geometry">
            <mxPoint x="542" y="1090" as="sourcePoint" />
            <mxPoint x="550" y="1140" as="targetPoint" />
          </mxGeometry>
        </mxCell>
        <mxCell id="-aJ28CqCpWHa6ndmjElJ-6" value="" style="endArrow=classic;html=1;rounded=0;entryX=0;entryY=0.5;entryDx=0;entryDy=0;" parent="1" target="F0rOSps_3qiA4jYZ8Of5-18" edge="1">
          <mxGeometry width="50" height="50" relative="1" as="geometry">
            <mxPoint x="150" y="900" as="sourcePoint" />
            <mxPoint x="220" y="780" as="targetPoint" />
          </mxGeometry>
        </mxCell>
        <mxCell id="-aJ28CqCpWHa6ndmjElJ-8" value="" style="endArrow=classic;html=1;rounded=0;entryX=0;entryY=0.5;entryDx=0;entryDy=0;exitX=0.995;exitY=0.419;exitDx=0;exitDy=0;exitPerimeter=0;dashed=1;dashPattern=8 8;" parent="1" source="F0rOSps_3qiA4jYZ8Of5-18" target="F0rOSps_3qiA4jYZ8Of5-13" edge="1">
          <mxGeometry width="50" height="50" relative="1" as="geometry">
            <mxPoint x="466" y="893" as="sourcePoint" />
            <mxPoint x="630" y="765" as="targetPoint" />
          </mxGeometry>
        </mxCell>
        <mxCell id="-aJ28CqCpWHa6ndmjElJ-9" value="" style="endArrow=classic;html=1;rounded=0;entryX=0;entryY=0.5;entryDx=0;entryDy=0;exitX=0.997;exitY=0.569;exitDx=0;exitDy=0;exitPerimeter=0;dashed=1;dashPattern=8 8;" parent="1" source="F0rOSps_3qiA4jYZ8Of5-18" target="F0rOSps_3qiA4jYZ8Of5-14" edge="1">
          <mxGeometry width="50" height="50" relative="1" as="geometry">
            <mxPoint x="476" y="903" as="sourcePoint" />
            <mxPoint x="640" y="775" as="targetPoint" />
          </mxGeometry>
        </mxCell>
        <mxCell id="-aJ28CqCpWHa6ndmjElJ-10" value="" style="endArrow=classic;html=1;rounded=0;entryX=0;entryY=0.5;entryDx=0;entryDy=0;exitX=0.966;exitY=0.688;exitDx=0;exitDy=0;exitPerimeter=0;dashed=1;dashPattern=8 8;" parent="1" source="F0rOSps_3qiA4jYZ8Of5-18" target="F0rOSps_3qiA4jYZ8Of5-15" edge="1">
          <mxGeometry width="50" height="50" relative="1" as="geometry">
            <mxPoint x="474" y="916" as="sourcePoint" />
            <mxPoint x="630" y="940" as="targetPoint" />
          </mxGeometry>
        </mxCell>
        <mxCell id="-aJ28CqCpWHa6ndmjElJ-12" value="&lt;font style=&quot;font-size: 14px;&quot;&gt;&amp;lt;&amp;lt;include&lt;/font&gt;&lt;span style=&quot;background-color: initial; font-size: 14px;&quot;&gt;&amp;gt;&amp;gt;&lt;/span&gt;" style="text;html=1;align=center;verticalAlign=middle;whiteSpace=wrap;rounded=0;rotation=-20;" parent="1" vertex="1">
          <mxGeometry x="510" y="840" width="60" height="30" as="geometry" />
        </mxCell>
        <mxCell id="-aJ28CqCpWHa6ndmjElJ-13" value="&lt;font style=&quot;font-size: 14px;&quot;&gt;&amp;lt;&amp;lt;include&lt;/font&gt;&lt;span style=&quot;background-color: initial; font-size: 14px;&quot;&gt;&amp;gt;&amp;gt;&lt;/span&gt;" style="text;html=1;align=center;verticalAlign=middle;whiteSpace=wrap;rounded=0;rotation=10;" parent="1" vertex="1">
          <mxGeometry x="530" y="894" width="60" height="30" as="geometry" />
        </mxCell>
        <mxCell id="-aJ28CqCpWHa6ndmjElJ-14" value="&lt;font style=&quot;font-size: 14px;&quot;&gt;&amp;lt;&amp;lt;include&lt;/font&gt;&lt;span style=&quot;background-color: initial; font-size: 14px;&quot;&gt;&amp;gt;&amp;gt;&lt;/span&gt;" style="text;html=1;align=center;verticalAlign=middle;whiteSpace=wrap;rounded=0;rotation=35;" parent="1" vertex="1">
          <mxGeometry x="530" y="940" width="60" height="30" as="geometry" />
        </mxCell>
        <mxCell id="dUYX5B5JXzRAnx4rCDKv-1" value="" style="endArrow=classic;html=1;rounded=0;entryX=0.5;entryY=0;entryDx=0;entryDy=0;dashed=1;dashPattern=8 8;exitX=0.5;exitY=1;exitDx=0;exitDy=0;" edge="1" parent="1" source="F0rOSps_3qiA4jYZ8Of5-11" target="F0rOSps_3qiA4jYZ8Of5-18">
          <mxGeometry width="50" height="50" relative="1" as="geometry">
            <mxPoint x="356" y="860" as="sourcePoint" />
            <mxPoint x="510" y="732" as="targetPoint" />
          </mxGeometry>
        </mxCell>
      </root>
    </mxGraphModel>
  </diagram>
</mxfile>
